<mxfile host="app.diagrams.net" modified="2021-01-26T14:08:58.463Z" agent="5.0 (Windows)" etag="ezEigXKPxtKTAaLsebPe" version="14.2.7" type="github">
  <diagram id="C5RBs43oDa-KdzZeNtuy" name="Page-1">
    <mxGraphModel dx="1695" dy="1648" grid="1" gridSize="10" guides="1" tooltips="1" connect="1" arrows="1" fold="1" page="1" pageScale="1" pageWidth="827" pageHeight="1169" math="0" shadow="0">
      <root>
        <mxCell id="WIyWlLk6GJQsqaUBKTNV-0" />
        <mxCell id="WIyWlLk6GJQsqaUBKTNV-1" parent="WIyWlLk6GJQsqaUBKTNV-0" />
        <mxCell id="wHNVbnOoPtwqPBdJOQNX-8" value="" style="edgeStyle=orthogonalEdgeStyle;rounded=0;orthogonalLoop=1;jettySize=auto;html=1;" parent="WIyWlLk6GJQsqaUBKTNV-1" source="wHNVbnOoPtwqPBdJOQNX-9" edge="1">
          <mxGeometry relative="1" as="geometry">
            <mxPoint x="395" y="150" as="targetPoint" />
          </mxGeometry>
        </mxCell>
        <mxCell id="wHNVbnOoPtwqPBdJOQNX-6" value="start" style="strokeWidth=2;html=1;shape=mxgraph.flowchart.start_1;whiteSpace=wrap;" parent="WIyWlLk6GJQsqaUBKTNV-1" vertex="1">
          <mxGeometry x="345" width="100" height="60" as="geometry" />
        </mxCell>
        <mxCell id="wHNVbnOoPtwqPBdJOQNX-11" value="" style="edgeStyle=orthogonalEdgeStyle;rounded=0;orthogonalLoop=1;jettySize=auto;html=1;" parent="WIyWlLk6GJQsqaUBKTNV-1" source="wHNVbnOoPtwqPBdJOQNX-9" target="wHNVbnOoPtwqPBdJOQNX-35" edge="1">
          <mxGeometry relative="1" as="geometry">
            <mxPoint x="395" y="190" as="targetPoint" />
          </mxGeometry>
        </mxCell>
        <mxCell id="wHNVbnOoPtwqPBdJOQNX-9" value="Player_HP = 3" style="rounded=1;whiteSpace=wrap;html=1;absoluteArcSize=1;arcSize=14;strokeWidth=2;" parent="WIyWlLk6GJQsqaUBKTNV-1" vertex="1">
          <mxGeometry x="320" y="90" width="150" height="60" as="geometry" />
        </mxCell>
        <mxCell id="wHNVbnOoPtwqPBdJOQNX-26" value="" style="edgeStyle=orthogonalEdgeStyle;rounded=0;orthogonalLoop=1;jettySize=auto;html=1;" parent="WIyWlLk6GJQsqaUBKTNV-1" source="wHNVbnOoPtwqPBdJOQNX-6" target="wHNVbnOoPtwqPBdJOQNX-9" edge="1">
          <mxGeometry relative="1" as="geometry">
            <mxPoint x="395" y="60" as="sourcePoint" />
            <mxPoint x="395" y="150" as="targetPoint" />
          </mxGeometry>
        </mxCell>
        <mxCell id="wHNVbnOoPtwqPBdJOQNX-37" value="" style="edgeStyle=orthogonalEdgeStyle;rounded=0;orthogonalLoop=1;jettySize=auto;html=1;" parent="WIyWlLk6GJQsqaUBKTNV-1" source="wHNVbnOoPtwqPBdJOQNX-35" target="wHNVbnOoPtwqPBdJOQNX-39" edge="1">
          <mxGeometry relative="1" as="geometry">
            <mxPoint x="395" y="300" as="targetPoint" />
          </mxGeometry>
        </mxCell>
        <mxCell id="wHNVbnOoPtwqPBdJOQNX-91" value="" style="edgeStyle=orthogonalEdgeStyle;rounded=0;orthogonalLoop=1;jettySize=auto;html=1;" parent="WIyWlLk6GJQsqaUBKTNV-1" source="wHNVbnOoPtwqPBdJOQNX-35" target="wHNVbnOoPtwqPBdJOQNX-95" edge="1">
          <mxGeometry relative="1" as="geometry">
            <mxPoint x="530" y="950" as="targetPoint" />
            <Array as="points">
              <mxPoint x="530" y="235" />
            </Array>
          </mxGeometry>
        </mxCell>
        <mxCell id="wHNVbnOoPtwqPBdJOQNX-35" value="เกมส์ทำงานอยู่?" style="strokeWidth=2;html=1;shape=mxgraph.flowchart.decision;whiteSpace=wrap;" parent="WIyWlLk6GJQsqaUBKTNV-1" vertex="1">
          <mxGeometry x="345" y="200" width="100" height="70" as="geometry" />
        </mxCell>
        <mxCell id="wHNVbnOoPtwqPBdJOQNX-41" value="" style="edgeStyle=orthogonalEdgeStyle;rounded=0;orthogonalLoop=1;jettySize=auto;html=1;" parent="WIyWlLk6GJQsqaUBKTNV-1" source="wHNVbnOoPtwqPBdJOQNX-39" target="wHNVbnOoPtwqPBdJOQNX-42" edge="1">
          <mxGeometry relative="1" as="geometry">
            <mxPoint x="237.5" y="335" as="targetPoint" />
          </mxGeometry>
        </mxCell>
        <mxCell id="wHNVbnOoPtwqPBdJOQNX-48" value="" style="edgeStyle=orthogonalEdgeStyle;rounded=0;orthogonalLoop=1;jettySize=auto;html=1;" parent="WIyWlLk6GJQsqaUBKTNV-1" source="wHNVbnOoPtwqPBdJOQNX-39" target="wHNVbnOoPtwqPBdJOQNX-77" edge="1">
          <mxGeometry relative="1" as="geometry">
            <mxPoint x="395" y="920" as="targetPoint" />
          </mxGeometry>
        </mxCell>
        <mxCell id="wHNVbnOoPtwqPBdJOQNX-39" value="กดปุ่มบนkeyboardไหม?" style="strokeWidth=2;html=1;shape=mxgraph.flowchart.decision;whiteSpace=wrap;" parent="WIyWlLk6GJQsqaUBKTNV-1" vertex="1">
          <mxGeometry x="326.25" y="300" width="137.5" height="70" as="geometry" />
        </mxCell>
        <mxCell id="wHNVbnOoPtwqPBdJOQNX-44" value="" style="edgeStyle=orthogonalEdgeStyle;rounded=0;orthogonalLoop=1;jettySize=auto;html=1;" parent="WIyWlLk6GJQsqaUBKTNV-1" source="wHNVbnOoPtwqPBdJOQNX-42" target="wHNVbnOoPtwqPBdJOQNX-46" edge="1">
          <mxGeometry relative="1" as="geometry">
            <mxPoint x="80" y="432.5" as="targetPoint" />
          </mxGeometry>
        </mxCell>
        <mxCell id="wHNVbnOoPtwqPBdJOQNX-51" value="" style="edgeStyle=orthogonalEdgeStyle;rounded=0;orthogonalLoop=1;jettySize=auto;html=1;" parent="WIyWlLk6GJQsqaUBKTNV-1" source="wHNVbnOoPtwqPBdJOQNX-42" target="wHNVbnOoPtwqPBdJOQNX-52" edge="1">
          <mxGeometry relative="1" as="geometry">
            <mxPoint x="160" y="460" as="targetPoint" />
          </mxGeometry>
        </mxCell>
        <mxCell id="wHNVbnOoPtwqPBdJOQNX-42" value="กดปุ่ม &#39;W&#39;" style="strokeWidth=2;html=1;shape=mxgraph.flowchart.decision;whiteSpace=wrap;" parent="WIyWlLk6GJQsqaUBKTNV-1" vertex="1">
          <mxGeometry x="110" y="380" width="100" height="35" as="geometry" />
        </mxCell>
        <mxCell id="wHNVbnOoPtwqPBdJOQNX-46" value="ตัวละครเดินขึ้น" style="strokeWidth=2;html=1;shape=mxgraph.flowchart.display;whiteSpace=wrap;" parent="WIyWlLk6GJQsqaUBKTNV-1" vertex="1">
          <mxGeometry y="420" width="83.33" height="40" as="geometry" />
        </mxCell>
        <mxCell id="wHNVbnOoPtwqPBdJOQNX-55" value="" style="edgeStyle=orthogonalEdgeStyle;rounded=0;orthogonalLoop=1;jettySize=auto;html=1;" parent="WIyWlLk6GJQsqaUBKTNV-1" source="wHNVbnOoPtwqPBdJOQNX-52" target="wHNVbnOoPtwqPBdJOQNX-56" edge="1">
          <mxGeometry relative="1" as="geometry">
            <mxPoint x="60" y="480" as="targetPoint" />
          </mxGeometry>
        </mxCell>
        <mxCell id="wHNVbnOoPtwqPBdJOQNX-58" value="" style="edgeStyle=orthogonalEdgeStyle;rounded=0;orthogonalLoop=1;jettySize=auto;html=1;" parent="WIyWlLk6GJQsqaUBKTNV-1" source="wHNVbnOoPtwqPBdJOQNX-52" target="wHNVbnOoPtwqPBdJOQNX-59" edge="1">
          <mxGeometry relative="1" as="geometry">
            <mxPoint x="160" y="570" as="targetPoint" />
          </mxGeometry>
        </mxCell>
        <mxCell id="wHNVbnOoPtwqPBdJOQNX-52" value="กดปุ่ม &#39;S&#39;" style="strokeWidth=2;html=1;shape=mxgraph.flowchart.decision;whiteSpace=wrap;" parent="WIyWlLk6GJQsqaUBKTNV-1" vertex="1">
          <mxGeometry x="110" y="460" width="100" height="40" as="geometry" />
        </mxCell>
        <mxCell id="wHNVbnOoPtwqPBdJOQNX-56" value="ตัวละครเดินลง" style="strokeWidth=2;html=1;shape=mxgraph.flowchart.display;whiteSpace=wrap;" parent="WIyWlLk6GJQsqaUBKTNV-1" vertex="1">
          <mxGeometry y="515" width="88.34" height="45" as="geometry" />
        </mxCell>
        <mxCell id="wHNVbnOoPtwqPBdJOQNX-60" value="" style="edgeStyle=orthogonalEdgeStyle;rounded=0;orthogonalLoop=1;jettySize=auto;html=1;" parent="WIyWlLk6GJQsqaUBKTNV-1" source="wHNVbnOoPtwqPBdJOQNX-59" target="wHNVbnOoPtwqPBdJOQNX-61" edge="1">
          <mxGeometry relative="1" as="geometry">
            <mxPoint x="44" y="630" as="targetPoint" />
          </mxGeometry>
        </mxCell>
        <mxCell id="wHNVbnOoPtwqPBdJOQNX-63" value="" style="edgeStyle=orthogonalEdgeStyle;rounded=0;orthogonalLoop=1;jettySize=auto;html=1;" parent="WIyWlLk6GJQsqaUBKTNV-1" source="wHNVbnOoPtwqPBdJOQNX-59" target="wHNVbnOoPtwqPBdJOQNX-64" edge="1">
          <mxGeometry relative="1" as="geometry">
            <mxPoint x="160" y="662.5" as="targetPoint" />
          </mxGeometry>
        </mxCell>
        <mxCell id="wHNVbnOoPtwqPBdJOQNX-59" value="กดปุ่ม &#39;A&#39;" style="strokeWidth=2;html=1;shape=mxgraph.flowchart.decision;whiteSpace=wrap;" parent="WIyWlLk6GJQsqaUBKTNV-1" vertex="1">
          <mxGeometry x="110" y="560" width="100" height="35" as="geometry" />
        </mxCell>
        <mxCell id="wHNVbnOoPtwqPBdJOQNX-61" value="ตัวละครเดินไปทางซ้าย" style="strokeWidth=2;html=1;shape=mxgraph.flowchart.display;whiteSpace=wrap;" parent="WIyWlLk6GJQsqaUBKTNV-1" vertex="1">
          <mxGeometry x="-18.34" y="610" width="120" height="50" as="geometry" />
        </mxCell>
        <mxCell id="wHNVbnOoPtwqPBdJOQNX-66" value="" style="edgeStyle=orthogonalEdgeStyle;rounded=0;orthogonalLoop=1;jettySize=auto;html=1;" parent="WIyWlLk6GJQsqaUBKTNV-1" source="wHNVbnOoPtwqPBdJOQNX-64" target="wHNVbnOoPtwqPBdJOQNX-67" edge="1">
          <mxGeometry relative="1" as="geometry">
            <mxPoint x="30.01666666666665" y="688.8000000000002" as="targetPoint" />
          </mxGeometry>
        </mxCell>
        <mxCell id="wHNVbnOoPtwqPBdJOQNX-70" value="" style="edgeStyle=orthogonalEdgeStyle;rounded=0;orthogonalLoop=1;jettySize=auto;html=1;" parent="WIyWlLk6GJQsqaUBKTNV-1" source="wHNVbnOoPtwqPBdJOQNX-64" target="wHNVbnOoPtwqPBdJOQNX-71" edge="1">
          <mxGeometry relative="1" as="geometry">
            <mxPoint x="160" y="776.25" as="targetPoint" />
          </mxGeometry>
        </mxCell>
        <mxCell id="wHNVbnOoPtwqPBdJOQNX-64" value="กดปุ่ม &#39;D&#39;" style="strokeWidth=2;html=1;shape=mxgraph.flowchart.decision;whiteSpace=wrap;" parent="WIyWlLk6GJQsqaUBKTNV-1" vertex="1">
          <mxGeometry x="110" y="670" width="100" height="37.5" as="geometry" />
        </mxCell>
        <mxCell id="wHNVbnOoPtwqPBdJOQNX-67" value="ตัวละครเดินไปทางขวา" style="strokeWidth=2;html=1;shape=mxgraph.flowchart.display;whiteSpace=wrap;" parent="WIyWlLk6GJQsqaUBKTNV-1" vertex="1">
          <mxGeometry x="-18.34" y="740" width="120" height="40" as="geometry" />
        </mxCell>
        <mxCell id="wHNVbnOoPtwqPBdJOQNX-73" value="" style="edgeStyle=orthogonalEdgeStyle;rounded=0;orthogonalLoop=1;jettySize=auto;html=1;" parent="WIyWlLk6GJQsqaUBKTNV-1" source="wHNVbnOoPtwqPBdJOQNX-71" target="wHNVbnOoPtwqPBdJOQNX-74" edge="1">
          <mxGeometry relative="1" as="geometry">
            <mxPoint x="15" y="820" as="targetPoint" />
          </mxGeometry>
        </mxCell>
        <mxCell id="wHNVbnOoPtwqPBdJOQNX-94" value="" style="edgeStyle=orthogonalEdgeStyle;rounded=0;orthogonalLoop=1;jettySize=auto;html=1;entryX=0;entryY=0.5;entryDx=0;entryDy=0;entryPerimeter=0;exitX=0.5;exitY=1;exitDx=0;exitDy=0;exitPerimeter=0;" parent="WIyWlLk6GJQsqaUBKTNV-1" source="wHNVbnOoPtwqPBdJOQNX-71" target="wHNVbnOoPtwqPBdJOQNX-77" edge="1">
          <mxGeometry relative="1" as="geometry">
            <mxPoint x="160" y="980" as="targetPoint" />
            <Array as="points">
              <mxPoint x="160" y="975" />
            </Array>
          </mxGeometry>
        </mxCell>
        <mxCell id="wHNVbnOoPtwqPBdJOQNX-71" value="กดปุ่ม &#39;Space bar&#39;" style="strokeWidth=2;html=1;shape=mxgraph.flowchart.decision;whiteSpace=wrap;" parent="WIyWlLk6GJQsqaUBKTNV-1" vertex="1">
          <mxGeometry x="95" y="800" width="130" height="40" as="geometry" />
        </mxCell>
        <mxCell id="wHNVbnOoPtwqPBdJOQNX-74" value="ตัวละครโจมตี" style="strokeWidth=2;html=1;shape=mxgraph.flowchart.display;whiteSpace=wrap;" parent="WIyWlLk6GJQsqaUBKTNV-1" vertex="1">
          <mxGeometry x="-5.01" y="890" width="88.34" height="40" as="geometry" />
        </mxCell>
        <mxCell id="wHNVbnOoPtwqPBdJOQNX-82" value="" style="edgeStyle=orthogonalEdgeStyle;rounded=0;orthogonalLoop=1;jettySize=auto;html=1;" parent="WIyWlLk6GJQsqaUBKTNV-1" source="wHNVbnOoPtwqPBdJOQNX-77" target="wHNVbnOoPtwqPBdJOQNX-83" edge="1">
          <mxGeometry relative="1" as="geometry">
            <mxPoint x="395" y="1030" as="targetPoint" />
          </mxGeometry>
        </mxCell>
        <mxCell id="wHNVbnOoPtwqPBdJOQNX-96" value="" style="edgeStyle=orthogonalEdgeStyle;rounded=0;orthogonalLoop=1;jettySize=auto;html=1;" parent="WIyWlLk6GJQsqaUBKTNV-1" source="wHNVbnOoPtwqPBdJOQNX-77" target="wHNVbnOoPtwqPBdJOQNX-95" edge="1">
          <mxGeometry relative="1" as="geometry" />
        </mxCell>
        <mxCell id="wHNVbnOoPtwqPBdJOQNX-77" value="ชนศัตรู?" style="strokeWidth=2;html=1;shape=mxgraph.flowchart.decision;whiteSpace=wrap;" parent="WIyWlLk6GJQsqaUBKTNV-1" vertex="1">
          <mxGeometry x="345" y="950" width="100" height="50" as="geometry" />
        </mxCell>
        <mxCell id="wHNVbnOoPtwqPBdJOQNX-85" value="" style="edgeStyle=orthogonalEdgeStyle;rounded=0;orthogonalLoop=1;jettySize=auto;html=1;" parent="WIyWlLk6GJQsqaUBKTNV-1" source="wHNVbnOoPtwqPBdJOQNX-83" target="wHNVbnOoPtwqPBdJOQNX-86" edge="1">
          <mxGeometry relative="1" as="geometry">
            <mxPoint x="395" y="1100" as="targetPoint" />
          </mxGeometry>
        </mxCell>
        <mxCell id="wHNVbnOoPtwqPBdJOQNX-83" value="Player_HP - 1" style="rounded=1;whiteSpace=wrap;html=1;absoluteArcSize=1;arcSize=14;strokeWidth=2;" parent="WIyWlLk6GJQsqaUBKTNV-1" vertex="1">
          <mxGeometry x="345" y="1020" width="100" height="40" as="geometry" />
        </mxCell>
        <mxCell id="wHNVbnOoPtwqPBdJOQNX-88" value="" style="edgeStyle=orthogonalEdgeStyle;rounded=0;orthogonalLoop=1;jettySize=auto;html=1;" parent="WIyWlLk6GJQsqaUBKTNV-1" source="wHNVbnOoPtwqPBdJOQNX-86" target="wHNVbnOoPtwqPBdJOQNX-92" edge="1">
          <mxGeometry relative="1" as="geometry">
            <mxPoint x="395" y="1149" as="targetPoint" />
          </mxGeometry>
        </mxCell>
        <mxCell id="wHNVbnOoPtwqPBdJOQNX-86" value="Player_HP = 0" style="strokeWidth=2;html=1;shape=mxgraph.flowchart.decision;whiteSpace=wrap;" parent="WIyWlLk6GJQsqaUBKTNV-1" vertex="1">
          <mxGeometry x="345" y="1080" width="100" height="50" as="geometry" />
        </mxCell>
        <mxCell id="wHNVbnOoPtwqPBdJOQNX-100" value="" style="edgeStyle=orthogonalEdgeStyle;rounded=0;orthogonalLoop=1;jettySize=auto;html=1;" parent="WIyWlLk6GJQsqaUBKTNV-1" source="wHNVbnOoPtwqPBdJOQNX-92" target="wHNVbnOoPtwqPBdJOQNX-101" edge="1">
          <mxGeometry relative="1" as="geometry">
            <mxPoint x="395" y="1220" as="targetPoint" />
          </mxGeometry>
        </mxCell>
        <mxCell id="wHNVbnOoPtwqPBdJOQNX-92" value="" style="verticalLabelPosition=bottom;verticalAlign=top;html=1;shape=mxgraph.flowchart.on-page_reference;" parent="WIyWlLk6GJQsqaUBKTNV-1" vertex="1">
          <mxGeometry x="377.5" y="1150" width="35" height="30" as="geometry" />
        </mxCell>
        <mxCell id="wHNVbnOoPtwqPBdJOQNX-98" value="" style="edgeStyle=orthogonalEdgeStyle;rounded=0;orthogonalLoop=1;jettySize=auto;html=1;entryX=1;entryY=0.5;entryDx=0;entryDy=0;entryPerimeter=0;" parent="WIyWlLk6GJQsqaUBKTNV-1" source="wHNVbnOoPtwqPBdJOQNX-95" target="wHNVbnOoPtwqPBdJOQNX-92" edge="1">
          <mxGeometry relative="1" as="geometry">
            <mxPoint x="530" y="1170" as="targetPoint" />
            <Array as="points">
              <mxPoint x="530" y="1165" />
            </Array>
          </mxGeometry>
        </mxCell>
        <mxCell id="wHNVbnOoPtwqPBdJOQNX-95" value="" style="verticalLabelPosition=bottom;verticalAlign=top;html=1;shape=mxgraph.flowchart.on-page_reference;" parent="WIyWlLk6GJQsqaUBKTNV-1" vertex="1">
          <mxGeometry x="510" y="955" width="40" height="40" as="geometry" />
        </mxCell>
        <mxCell id="wHNVbnOoPtwqPBdJOQNX-101" value="จบเกมส์" style="strokeWidth=2;html=1;shape=mxgraph.flowchart.terminator;whiteSpace=wrap;" parent="WIyWlLk6GJQsqaUBKTNV-1" vertex="1">
          <mxGeometry x="345" y="1230" width="100" height="60" as="geometry" />
        </mxCell>
      </root>
    </mxGraphModel>
  </diagram>
</mxfile>
